<?xml version="1.0" standalone="no"?>
<!DOCTYPE svg PUBLIC "-//W3C//DTD SVG 20010904//EN"
 "http://www.w3.org/TR/2001/REC-SVG-20010904/DTD/svg10.dtd">
<svg version="1.0" xmlns="http://www.w3.org/2000/svg"
 width="320.000000pt" height="320.000000pt" viewBox="0 0 320.000000 320.000000"
 preserveAspectRatio="xMidYMid meet">
<metadata>
Created by potrace 1.14, written by Peter Selinger 2001-2017
</metadata>
<g transform="translate(0.000000,320.000000) scale(0.100000,-0.100000)"
fill="#000000" stroke="none">
<path d="M1385 2762 c-49 -25 -139 -70 -200 -100 -60 -30 -139 -75 -175 -101
-81 -57 -134 -87 -125 -69 3 7 0 5 -8 -5 -8 -10 -18 -14 -20 -9 -6 9 27 65 34
58 2 -3 12 9 21 25 16 28 8 43 -9 16 -4 -8 -23 -22 -41 -33 -34 -20 -113 -112
-133 -158 -7 -14 -16 -26 -21 -26 -4 0 -8 -6 -8 -13 0 -8 -12 -24 -26 -38 -31
-29 -44 -58 -84 -183 -36 -114 -59 -217 -66 -296 -3 -30 -7 -71 -9 -90 -1 -19
1 -43 6 -53 6 -9 12 -106 15 -215 7 -239 7 -242 17 -242 4 0 6 -3 5 -8 0 -4 2
-16 6 -27 4 -11 12 -33 18 -50 6 -16 38 -86 71 -155 54 -109 72 -136 145 -212
121 -126 337 -271 486 -327 69 -26 96 -26 144 -3 32 15 54 19 72 12 41 -15
192 3 260 32 20 8 49 14 65 13 62 -4 183 49 205 89 9 18 29 31 60 40 67 20
194 94 243 142 45 43 104 148 113 200 2 16 6 34 9 41 11 32 -92 24 -146 -11
-21 -14 -44 -26 -51 -26 -7 0 -28 -13 -46 -28 -150 -126 -256 -173 -371 -166
-125 7 -261 38 -411 92 -30 11 -40 10 -40 -3 0 -15 31 -36 80 -54 19 -7 49
-20 67 -27 17 -8 35 -14 40 -14 10 0 60 -39 52 -41 -2 0 -12 -2 -21 -4 -10 -2
-18 1 -18 5 0 5 -9 7 -21 5 -41 -8 -173 44 -264 104 -98 64 -162 121 -215 191
-19 25 -37 47 -40 50 -16 14 -129 190 -142 220 -38 87 -40 100 -35 202 6 109
20 224 36 298 13 63 65 238 84 283 9 20 16 40 16 42 1 3 7 21 15 40 18 41 17
75 -2 75 -7 0 -10 5 -6 12 4 7 3 8 -4 4 -23 -14 -34 5 -15 27 10 11 12 17 5
13 -11 -7 -11 -4 0 13 7 12 15 21 19 21 3 0 15 9 26 20 48 44 244 160 289 171
27 7 60 18 74 24 14 7 47 16 75 19 27 4 63 13 80 21 22 10 62 13 150 10 66 -2
131 -6 145 -9 14 -3 48 -11 75 -17 85 -19 175 -52 175 -65 0 -12 59 -78 76
-85 15 -6 134 -144 172 -201 58 -84 72 -129 67 -214 -2 -58 -7 -79 -19 -86 -9
-5 -13 -14 -10 -20 5 -7 2 -8 -7 -2 -8 5 -18 9 -24 9 -12 1 -45 -63 -82 -155
-37 -92 -66 -134 -110 -161 -21 -13 -40 -26 -43 -29 -5 -7 -100 -40 -126 -44
-9 -1 -19 -8 -23 -14 -4 -7 -22 -23 -39 -36 -51 -37 -25 -48 107 -44 89 2 113
6 130 22 11 10 36 19 56 20 19 0 35 4 35 9 0 14 31 7 36 -8 5 -11 10 -13 19
-5 9 8 15 8 20 0 3 -6 11 -7 17 -4 6 4 13 2 17 -4 3 -5 15 -12 26 -14 11 -1
23 -7 27 -13 12 -17 84 -8 127 16 42 23 108 107 114 144 1 11 6 26 10 33 5 6
6 12 3 12 -3 0 4 24 15 53 33 81 33 142 -2 275 -16 64 -32 124 -36 132 -3 8
-7 17 -7 20 -1 3 -8 16 -16 30 -27 48 -63 125 -62 133 1 4 -2 7 -6 7 -5 0 -14
11 -20 24 -6 13 -40 60 -76 104 -36 45 -66 84 -66 87 0 3 -11 16 -24 28 -90
83 -164 137 -188 137 -9 0 -48 12 -85 26 -106 40 -144 51 -198 57 -114 14
-201 31 -214 41 -8 6 -60 11 -120 12 l-106 1 -90 -45z"/>
<path d="M1730 2343 c-88 -49 -120 -74 -120 -91 0 -9 -29 -53 -65 -96 -66 -79
-74 -97 -41 -102 10 -1 15 0 12 3 -14 14 128 92 160 88 13 -1 24 2 24 8 0 6 3
7 6 4 7 -7 56 28 54 38 -1 4 9 16 22 27 l23 20 7 -34 c4 -18 7 -106 7 -195 -1
-157 -7 -197 -45 -311 -3 -11 -12 -9 -38 7 -18 12 -52 22 -75 23 -44 1 -47 7
-32 54 5 16 12 41 15 55 4 20 17 30 50 43 53 20 85 71 66 106 -13 24 -26 25
-73 5 -44 -18 -57 -19 -57 -3 0 6 -10 31 -21 55 l-21 44 -24 -22 c-15 -14 -25
-38 -29 -68 -13 -103 -14 -105 -53 -130 -20 -14 -47 -33 -59 -44 -22 -20 -45
-16 -38 6 2 7 6 44 9 82 3 39 17 115 31 170 41 161 41 173 4 223 -22 30 -38
42 -52 40 -17 -3 -25 -21 -48 -118 -15 -63 -37 -148 -48 -187 -34 -118 -33
-312 3 -416 23 -70 65 -147 81 -154 10 -3 15 -20 15 -52 0 -44 -3 -49 -52 -91
-137 -119 -197 -205 -179 -253 13 -34 37 -40 78 -20 26 12 43 32 68 82 108
216 126 246 159 256 18 6 76 36 129 68 l97 59 52 -26 c61 -30 80 -32 117 -10
21 13 34 35 54 98 43 132 53 272 33 461 -3 33 -8 88 -10 122 -8 106 -66 204
-122 202 -16 0 -49 -12 -74 -26z m-216 -570 c-6 -30 -29 -126 -40 -161 l-7
-24 43 22 c24 12 52 30 63 41 15 14 24 16 39 8 11 -6 45 -9 76 -8 31 1 58 -1
60 -4 6 -19 0 -39 -18 -57 l-20 -20 -53 27 c-28 15 -54 30 -57 34 -3 5 -10 5
-16 1 -23 -15 -19 -37 15 -67 33 -31 34 -32 10 -31 -13 2 -40 -4 -59 -12 -88
-35 -79 -36 -101 15 -23 54 -55 169 -54 198 0 15 6 19 23 17 14 -2 30 4 40 16
15 17 36 29 54 31 4 1 5 -11 2 -26z"/>
<path d="M1600 1384 c0 -17 64 -116 86 -133 42 -33 105 -10 83 31 -16 30 -79
88 -106 99 -28 10 -63 12 -63 3z"/>
<path d="M1806 1331 c-15 -16 -11 -24 54 -105 64 -80 91 -129 77 -143 -3 -3
-45 -7 -92 -9 -80 -4 -91 -2 -151 26 -35 17 -64 35 -64 41 0 5 -4 9 -10 9 -16
0 -78 46 -106 79 -14 17 -30 29 -35 25 -60 -37 186 -244 345 -289 101 -29 237
-6 288 50 54 57 22 144 -84 232 -29 24 -73 50 -98 59 -25 9 -59 22 -77 29 -27
12 -33 12 -47 -4z"/>
<path d="M538 929 c6 -9 10 -18 7 -21 -3 -2 6 -14 18 -26 18 -17 24 -19 24 -8
0 8 -4 13 -9 10 -4 -3 -8 1 -8 9 0 8 -10 22 -22 33 -14 12 -18 13 -10 3z"/>
<path d="M930 561 c0 -13 92 -107 112 -114 19 -7 36 11 22 22 -5 3 -17 18 -26
33 -10 14 -28 30 -40 34 -12 3 -28 13 -36 20 -15 16 -32 18 -32 5z"/>
</g>
</svg>
